HIERARCHY
ROOT Hips
{
	OFFSET 0.000000 0.000000 0.000000
	CHANNELS 6 Xposition Yposition Zposition Xrotation Yrotation Zrotation
	JOINT LeftUpLeg_virtual
	{
		OFFSET 0.000000 0.000000 0.000000
		CHANNELS 3 Xrotation Yrotation Zrotation
		JOINT LeftUpLeg
		{
			OFFSET 10.205400 -3.823500 0.155100
			CHANNELS 3 Xrotation Yrotation Zrotation
			JOINT LeftLeg
			{
				OFFSET 0.708757 -12.982077 0.567790
				CHANNELS 3 Xrotation Yrotation Zrotation
				JOINT LeftFoot
				{
					OFFSET -0.708756 -10.717838 -2.184338
					CHANNELS 3 Xrotation Yrotation Zrotation
					JOINT LeftToeBase
					{
						OFFSET 0.108149 -7.191104 7.560241
						CHANNELS 3 Xrotation Yrotation Zrotation
						JOINT LeftToe_End
						{
							OFFSET 0.070230 0.081724 4.490308
							CHANNELS 3 Xrotation Yrotation Zrotation
							End Site
							{
								OFFSET 0 0 0
							}
						}
					}
				}
			}
		}
	}
	JOINT RightUpLeg_virtual
	{
		OFFSET 0.000000 0.000000 0.000000
		CHANNELS 3 Xrotation Yrotation Zrotation
		JOINT RightUpLeg
		{
			OFFSET -10.205400 -3.823500 0.005500
			CHANNELS 3 Xrotation Yrotation Zrotation
			JOINT RightLeg
			{
				OFFSET -0.708756 -12.982134 0.610632
				CHANNELS 3 Xrotation Yrotation Zrotation
				JOINT RightFoot
				{
					OFFSET 0.708754 -10.717769 -1.945823
					CHANNELS 3 Xrotation Yrotation Zrotation
					JOINT RightToeBase
					{
						OFFSET -0.108140 -7.191069 7.372968
						CHANNELS 3 Xrotation Yrotation Zrotation
						JOINT RightToe_End
						{
							OFFSET -0.070227 0.081735 4.479403
							CHANNELS 3 Xrotation Yrotation Zrotation
							End Site
							{
								OFFSET 0 0 0
							}
						}
					}
				}
			}
		}
	}
	JOINT Spine_virtual
	{
		OFFSET 0.000000 0.000000 0.000000
		CHANNELS 3 Xrotation Yrotation Zrotation
		JOINT Spine
		{
			OFFSET 0.000000 6.876099 0.125700
			CHANNELS 3 Xrotation Yrotation Zrotation
			JOINT Spine1
			{
				OFFSET 0.000000 5.730043 0.104720
				CHANNELS 3 Xrotation Yrotation Zrotation
				JOINT Spine1_split
				{
					OFFSET 0.000000 5.730043 0.104720
					CHANNELS 3 Xrotation Yrotation Zrotation
					JOINT Spine2
					{
						OFFSET 0.000000 5.730043 0.104720
						CHANNELS 3 Xrotation Yrotation Zrotation
						JOINT Neck_virtual
						{
							OFFSET 0.000000 0.000000 0.000000
							CHANNELS 3 Xrotation Yrotation Zrotation
							JOINT Neck
							{
								OFFSET 0.000000 10.314075 0.188496
								CHANNELS 3 Xrotation Yrotation Zrotation
								JOINT Head
								{
									OFFSET 0.000000 7.643700 -2.377400
									CHANNELS 3 Xrotation Yrotation Zrotation
									JOINT HeadTop_End
									{
										OFFSET 0.000000 43.788605 -13.619600
										CHANNELS 3 Xrotation Yrotation Zrotation
										End Site
										{
											OFFSET 0 0 0
										}
									}
								}
							}
						}
						JOINT LeftShoulder_virtual
						{
							OFFSET 0.000000 0.000000 0.000000
							CHANNELS 3 Xrotation Yrotation Zrotation
							JOINT LeftShoulder
							{
								OFFSET 2.196100 4.412489 0.087492
								CHANNELS 3 Xrotation Yrotation Zrotation
								JOINT LeftShoulder_split
								{
									OFFSET 2.196100 4.412489 0.087492
									CHANNELS 3 Xrotation Yrotation Zrotation
									JOINT LeftArm
									{
										OFFSET 8.771219 -2.981674 -0.026999
										CHANNELS 3 Xrotation Yrotation Zrotation
										JOINT LeftForeArm
										{
											OFFSET 8.512804 0.000000 -0.000000
											CHANNELS 3 Xrotation Yrotation Zrotation
											JOINT LeftHand
											{
												OFFSET 18.484802 0.000000 -0.000000
												CHANNELS 3 Xrotation Yrotation Zrotation
												End Site
												{
													OFFSET 0 0 0
												}
											}
										}
									}
								}
							}
						}
						JOINT RightShoulder_virtual
						{
							OFFSET 0.000000 0.000000 0.000000
							CHANNELS 3 Xrotation Yrotation Zrotation
							JOINT RightShoulder
							{
								OFFSET -2.196100 4.412496 0.070690
								CHANNELS 3 Xrotation Yrotation Zrotation
								JOINT RightShoulder_split
								{
									OFFSET -2.196100 4.412496 0.070690
									CHANNELS 3 Xrotation Yrotation Zrotation
									JOINT RightArm
									{
										OFFSET -8.771282 -2.981682 -0.094208
										CHANNELS 3 Xrotation Yrotation Zrotation
										JOINT RightForeArm
										{
											OFFSET -8.494598 0.000000 0.000000
											CHANNELS 3 Xrotation Yrotation Zrotation
											JOINT RightHand
											{
												OFFSET -18.483803 0.000000 0.000001
												CHANNELS 3 Xrotation Yrotation Zrotation
												End Site
												{
													OFFSET 0 0 0
												}
											}
										}
									}
								}
							}
						}
					}
				}
			}
		}
	}
}
MOTION
Frames: 11
Frame Time: 0.03333333
5.078098 31.517900 -0.182926 0.000000 0.000000 0.000000 2.108827 -44.330168 2.660215 -19.124074 14.844856 7.895437 38.910351 20.189267 2.693769 -14.567667 15.762372 -16.817714 -0.780208 -0.873392 -3.041961 0.000000 0.000000 0.000000 1.955374 -43.767395 2.954445 -19.564088 -37.229872 -23.522307 31.471251 -7.963020 -7.935174 -21.886685 -4.599110 9.821409 -8.553668 5.076210 6.631923 0.000000 0.000000 0.000000 3.711362 -41.594578 3.097711 11.098889 -7.479138 2.285563 3.055757 -2.097621 -1.993180 -0.242323 -0.465700 0.868583 0.000000 0.000000 0.000000 -7.679317 -3.935917 -0.768461 -9.589539 -4.903560 -4.980864 10.368536 -22.439120 7.781477 0.000000 0.000000 0.000000 -8.819704 -3.896875 -1.224521 -0.890524 2.414094 -6.720695 1.036777 -2.963086 1.587898 9.567685 5.519971 -58.859613 -1.048333 -46.043835 0.238660 0.000000 0.000000 0.000000 -8.838161 -4.278913 -1.184632 -0.987434 -1.178982 5.942851 -3.146403 -3.925079 -2.110834 7.529110 18.283436 71.747176 0.241393 49.617557 1.307494 0.000000 0.000000 0.000000 
4.868032 31.484232 -0.436075 0.000000 0.000000 0.000000 1.285611 -47.894837 2.432846 -18.296156 15.166971 8.560361 40.189438 21.011137 2.513835 -13.726437 16.182810 -16.411346 -0.569639 -0.456006 -4.037366 0.000000 0.000000 0.000000 1.264001 -47.167920 2.722241 -18.117464 -37.676795 -23.201895 30.042946 -9.095257 -8.239273 -22.431630 -5.807049 10.141923 -8.018754 5.312997 5.116796 0.000000 0.000000 0.000000 2.954533 -44.876535 2.871188 11.030849 -7.409355 2.211268 2.804928 -1.884606 -1.826781 -0.253981 -0.622937 0.958513 0.000000 0.000000 0.000000 -7.889932 -3.773722 -0.591244 -9.311310 -4.014929 -5.146975 10.648362 -20.615647 7.309138 0.000000 0.000000 0.000000 -9.043474 -3.693261 -1.054015 -0.813672 2.196333 -6.670775 1.046542 -3.336815 1.705472 9.053325 5.110734 -58.312125 -1.187612 -45.272526 0.234451 0.000000 0.000000 0.000000 -9.025328 -4.094892 -1.039258 -1.212900 -0.398661 5.808308 -3.139368 -3.852415 -2.188980 7.150749 16.911443 71.964881 0.130918 48.103219 1.382358 0.000000 0.000000 0.000000 
4.612873 31.441309 -0.748161 0.000000 0.000000 0.000000 0.490209 -51.217359 1.888153 -18.394401 15.458861 9.960924 41.949246 21.597852 2.282075 -11.976370 16.166827 -15.972310 -0.432843 -0.111499 -5.453553 0.000000 0.000000 0.000000 0.374997 -50.221882 2.081356 -16.985506 -37.731471 -22.405459 28.560846 -9.704006 -8.307327 -22.357151 -6.313927 10.662216 -8.644221 5.508281 3.805584 0.000000 0.000000 0.000000 2.273928 -47.918562 2.433131 11.002437 -7.025292 2.101494 2.600665 -1.766418 -1.586832 -0.199074 -0.767488 1.018467 0.000000 0.000000 0.000000 -8.062842 -3.676517 -0.351186 -9.061110 -3.319985 -5.261152 10.855300 -19.103605 6.812524 0.000000 0.000000 0.000000 -9.205742 -3.580286 -0.804355 -0.759683 1.932552 -6.581992 1.065397 -3.490928 1.680302 8.365807 4.500234 -57.983573 -1.177725 -44.631403 0.354485 0.000000 0.000000 0.000000 -9.191512 -3.985748 -0.813744 -1.410678 0.217642 5.672483 -3.017661 -3.747463 -2.344798 6.652957 15.322539 72.075202 0.025124 46.095048 1.457304 0.000000 0.000000 0.000000 
4.324811 31.423193 -1.062876 0.000000 0.000000 0.000000 -0.291200 -54.074662 1.055695 -19.301064 15.717908 11.926643 43.586791 21.825443 2.159362 -9.503152 15.561602 -15.543508 -0.956401 0.125163 -6.884054 0.000000 0.000000 0.000000 -0.593197 -52.945987 1.106406 -15.935678 -37.363143 -21.156646 26.987005 -9.835000 -8.227922 -21.913772 -6.236925 11.460060 -10.049921 5.622796 2.838635 0.000000 0.000000 0.000000 1.725441 -50.697783 1.846714 11.011897 -6.392912 1.977388 2.444309 -1.747756 -1.279927 -0.060591 -0.950463 0.985415 0.000000 0.000000 0.000000 -8.181861 -3.656418 -0.051354 -8.839879 -2.807401 -5.348796 10.970468 -17.886322 6.326864 0.000000 0.000000 0.000000 -9.304293 -3.566085 -0.488349 -0.730327 1.611493 -6.492518 1.117414 -3.314633 1.599761 7.628449 3.648407 -57.783865 -1.091312 -44.117838 0.519722 0.000000 0.000000 0.000000 -9.334696 -3.962623 -0.504204 -1.571138 0.657937 5.543885 -2.797487 -3.510308 -2.544242 6.116181 13.557672 72.099695 -0.038831 43.725491 1.506514 0.000000 0.000000 0.000000 
4.040110 31.443813 -1.379446 0.000000 0.000000 0.000000 -1.033918 -56.432792 0.037982 -20.667258 15.907726 14.122772 44.560714 21.346441 2.248862 -6.933473 14.335466 -15.225583 -2.352893 0.256413 -7.884367 0.000000 0.000000 0.000000 -1.441900 -55.407622 0.021750 -14.430591 -36.605429 -19.307447 25.234105 -9.980161 -8.075736 -21.808785 -5.974098 11.729081 -11.001584 5.608836 2.347335 0.000000 0.000000 0.000000 1.413142 -53.293582 1.280278 11.047395 -5.589513 1.835426 2.319376 -1.792431 -0.925001 0.078698 -1.132848 0.884243 0.000000 0.000000 0.000000 -8.265443 -3.688483 0.294104 -8.607311 -2.456337 -5.485251 11.022432 -16.951138 5.883652 0.000000 0.000000 0.000000 -9.345805 -3.627014 -0.129873 -0.728404 1.291736 -6.435861 1.191615 -2.775145 1.413019 6.945199 2.501387 -57.636770 -1.004794 -43.631931 0.655142 0.000000 0.000000 0.000000 -9.448162 -4.001804 -0.136354 -1.677980 0.920251 5.450733 -2.561544 -3.154402 -2.777287 5.634012 11.656290 72.073495 -0.035791 41.112715 1.515895 0.000000 0.000000 0.000000 
3.746732 31.503185 -1.633986 0.000000 0.000000 0.000000 -1.499495 -58.377422 -0.881728 -22.227316 16.238029 16.235180 44.667368 20.295321 2.302945 -5.611092 12.739688 -14.274044 -3.665254 0.205005 -8.372005 0.000000 0.000000 0.000000 -2.180996 -57.637849 -1.024359 -12.360462 -35.422959 -17.011532 23.237960 -10.388640 -7.875508 -22.339158 -5.807772 11.122873 -10.602320 5.491940 2.306670 0.000000 0.000000 0.000000 1.347662 -55.738633 0.872054 11.082562 -4.681310 1.693799 2.208619 -1.858646 -0.557851 0.165616 -1.224087 0.781235 0.000000 0.000000 0.000000 -8.325001 -3.732964 0.650166 -8.349322 -2.237295 -5.712798 11.051965 -16.257286 5.514611 0.000000 0.000000 0.000000 -9.361067 -3.711638 0.240369 -0.753726 1.045244 -6.405684 1.348305 -2.006655 1.219488 6.493381 1.030340 -57.481697 -0.997564 -43.184837 0.697759 0.000000 0.000000 0.000000 -9.532373 -4.063571 0.252784 -1.735371 1.016108 5.374045 -2.348913 -2.679010 -2.998079 5.238190 9.681561 71.964574 0.014560 38.381893 1.490839 0.000000 0.000000 0.000000 
3.449451 31.597809 -1.838579 0.000000 0.000000 0.000000 -1.685662 -60.009052 -1.545173 -23.937308 16.644271 18.064896 44.220602 18.691841 2.133064 -5.595209 10.927012 -12.796728 -3.998458 -0.083360 -8.318224 0.000000 0.000000 0.000000 -2.731225 -59.769408 -1.842613 -10.062890 -33.675797 -14.616443 21.236412 -10.941441 -7.677011 -23.224781 -5.896832 10.133659 -9.527460 5.289623 2.610020 0.000000 0.000000 0.000000 1.536829 -58.085711 0.726800 11.131095 -3.718965 1.552733 2.102296 -1.876460 -0.214994 0.150909 -1.278167 0.668880 0.000000 0.000000 0.000000 -8.386287 -3.727371 0.981319 -8.075336 -2.113161 -6.084215 11.096907 -15.750023 5.236284 0.000000 0.000000 0.000000 -9.365355 -3.752644 0.587060 -0.802768 0.912924 -6.401751 1.469818 -1.163342 0.987242 6.294914 -0.722320 -57.307705 -1.102760 -42.759119 0.628220 0.000000 0.000000 0.000000 -9.590775 -4.081304 0.624572 -1.741297 0.985491 5.301477 -2.217641 -2.228028 -3.173524 4.951357 7.752108 71.722826 0.093569 35.684781 1.445763 0.000000 0.000000 0.000000 
3.149335 31.709101 -1.992620 0.000000 0.000000 0.000000 -1.553215 -61.649096 -1.830390 -25.850044 16.863710 19.563684 43.841553 16.382547 1.600605 -5.937290 8.924783 -11.459276 -3.483201 -0.565256 -7.632495 0.000000 0.000000 0.000000 -3.106440 -61.893678 -2.370408 -7.863162 -31.388435 -12.466872 19.532195 -11.427055 -7.524030 -23.834433 -6.231929 9.478865 -8.679142 5.045954 3.055620 0.000000 0.000000 0.000000 1.876118 -60.357111 0.863717 11.196122 -2.740637 1.407986 2.005307 -1.791363 0.067825 0.121034 -1.274448 0.614653 0.000000 0.000000 0.000000 -8.468617 -3.615019 1.256649 -7.782382 -2.045793 -6.591078 11.183906 -15.391601 5.063775 0.000000 0.000000 0.000000 -9.378426 -3.687721 0.881045 -0.871625 0.904357 -6.390645 1.566029 -0.349625 0.750702 6.342983 -2.615468 -57.158141 -1.297903 -42.421800 0.472686 0.000000 0.000000 0.000000 -9.628851 -3.993948 0.941108 -1.701032 0.872459 5.249901 -2.124432 -1.839764 -3.341164 4.755415 5.966280 71.334052 0.195031 33.157778 1.400128 0.000000 0.000000 0.000000 
2.850067 31.832262 -2.088526 0.000000 0.000000 0.000000 -1.233191 -63.519386 -1.760419 -27.793507 16.845425 20.609000 43.783849 13.656606 0.746718 -6.092709 6.921804 -10.219985 -3.162345 -1.090001 -6.321796 0.000000 0.000000 0.000000 -3.333705 -64.070248 -2.607922 -5.916555 -28.652825 -10.688292 18.158439 -11.666095 -7.467393 -24.130802 -6.722329 9.390271 -8.019802 4.834823 3.450484 0.000000 0.000000 0.000000 2.283567 -62.581253 1.222014 11.309724 -1.783888 1.257433 1.933018 -1.553862 0.271934 0.104911 -1.241242 0.615924 0.000000 0.000000 0.000000 -8.558047 -3.357863 1.456180 -7.548591 -1.982293 -7.185279 11.303240 -15.071528 4.978356 0.000000 0.000000 0.000000 -9.399761 -3.473328 1.104913 -0.952848 0.981980 -6.342004 1.701657 0.317023 0.543782 6.603511 -4.513395 -57.094596 -1.525924 -42.219134 0.271029 0.000000 0.000000 0.000000 -9.660167 -3.755587 1.191047 -1.631178 0.724624 5.237331 -2.034801 -1.501873 -3.462392 4.632271 4.472643 70.826234 0.323475 30.854365 1.367532 0.000000 0.000000 0.000000 
2.557604 31.947857 -2.171432 0.000000 0.000000 0.000000 -0.871098 -65.677064 -1.448180 -29.248830 16.712411 20.919387 43.707439 11.074558 -0.134895 -6.288157 5.268698 -8.314628 -3.713126 -1.570617 -4.683334 0.000000 0.000000 0.000000 -3.354156 -66.297347 -2.529738 -4.210730 -25.608889 -9.192811 16.983817 -11.721186 -7.581235 -24.590544 -7.297612 9.567221 -7.208432 4.699915 3.738484 0.000000 0.000000 0.000000 2.640005 -64.804500 1.699192 11.472259 -0.885448 1.080270 1.889310 -1.143247 0.392531 0.150813 -1.213790 0.663431 0.000000 0.000000 0.000000 -8.645975 -2.934374 1.578978 -7.407975 -1.898266 -7.811605 11.421318 -14.723156 4.967132 0.000000 0.000000 0.000000 -9.421715 -3.083634 1.256328 -1.038401 1.098222 -6.232729 1.903600 0.830918 0.362993 6.940159 -6.311041 -57.189714 -1.700501 -42.039179 0.080833 0.000000 0.000000 0.000000 -9.685357 -3.345655 1.369610 -1.536961 0.573264 5.279542 -1.909361 -1.228635 -3.541268 4.618726 3.367753 70.274341 0.482046 28.785463 1.362269 0.000000 0.000000 0.000000 
2.278476 32.049286 -2.184349 0.000000 0.000000 0.000000 -0.486892 -68.077062 -0.901974 -29.706310 16.447277 20.295542 43.025131 8.955090 -0.637172 -7.158130 4.125547 -5.630972 -4.630307 -1.942866 -3.467221 0.000000 0.000000 0.000000 -3.142593 -68.472981 -2.131000 -2.661204 -22.494784 -7.890684 16.043850 -11.927664 -7.829992 -25.287303 -7.890410 9.427944 -6.220855 4.657563 3.934310 0.000000 0.000000 0.000000 3.017263 -66.951638 2.345187 11.666010 -0.088170 0.863250 1.883888 -0.570570 0.433773 0.242934 -1.291751 0.742457 0.000000 0.000000 0.000000 -8.704338 -2.348171 1.631732 -7.384868 -1.750370 -8.366485 11.488181 -14.263476 5.005826 0.000000 0.000000 0.000000 -9.430643 -2.524924 1.339586 -1.121300 1.250008 -6.051905 2.251629 1.169984 0.246480 7.187988 -7.934340 -57.483391 -1.747041 -41.819466 -0.054582 0.000000 0.000000 0.000000 -9.712727 -2.772467 1.481290 -1.425653 0.414861 5.368635 -1.801187 -1.044975 -3.599424 4.755668 2.670389 69.771100 0.659887 26.909726 1.383122 0.000000 0.000000 0.000000 
